# Blender v2.79 (sub 0) OBJ File: ''
# www.blender.org
mtllib piloto.mtl
o UFO_cockpit
v -0.116413 3.303668 0.032238
v -0.116413 3.276956 -0.238976
v -0.169324 3.276956 -0.233765
v -0.220202 3.276956 -0.218331
v -0.267091 3.276956 -0.193268
v -0.308190 3.276956 -0.159539
v -0.341919 3.276956 -0.118441
v -0.366982 3.276956 -0.071551
v -0.382416 3.276956 -0.020673
v -0.387627 3.276956 0.032238
v -0.382416 3.276956 0.085149
v -0.366982 3.276956 0.136027
v -0.341919 3.276956 0.182916
v -0.308190 3.276956 0.224015
v -0.267091 3.276956 0.257744
v -0.220202 3.276956 0.282807
v -0.169324 3.276956 0.298240
v -0.116413 3.276956 0.303451
v -0.063502 3.276956 0.298240
v -0.012624 3.276956 0.282806
v 0.034265 3.276956 0.257743
v 0.075364 3.276956 0.224015
v 0.109093 3.276956 0.182916
v 0.134156 3.276956 0.136026
v 0.149589 3.276956 0.085148
v 0.154801 3.276956 0.032237
v 0.149589 3.276956 -0.020674
v 0.134156 3.276956 -0.071552
v 0.109093 3.276956 -0.118441
v 0.075364 3.276956 -0.159540
v 0.034265 3.276956 -0.193269
v -0.012625 3.276956 -0.218331
v -0.063502 3.276956 -0.233765
v -0.220202 3.197846 -0.489545
v -0.116413 3.197846 -0.499767
v -0.320002 3.197846 -0.459271
v -0.411979 3.197846 -0.410108
v -0.492597 3.197846 -0.343947
v -0.558759 3.197846 -0.263328
v -0.607922 3.197846 -0.171352
v -0.638196 3.197846 -0.071551
v -0.648418 3.197846 0.032238
v -0.638196 3.197846 0.136027
v -0.607922 3.197846 0.235827
v -0.558759 3.197846 0.327804
v -0.492597 3.197846 0.408422
v -0.411979 3.197846 0.474584
v -0.320002 3.197846 0.523746
v -0.220202 3.197846 0.554020
v -0.116413 3.197846 0.564243
v -0.012624 3.197846 0.554020
v 0.087177 3.197846 0.523746
v 0.179154 3.197846 0.474583
v 0.259772 3.197846 0.408422
v 0.325933 3.197846 0.327803
v 0.375096 3.197846 0.235827
v 0.405370 3.197846 0.136026
v 0.415592 3.197846 0.032237
v 0.405369 3.197846 -0.071552
v 0.375095 3.197846 -0.171353
v 0.325932 3.197846 -0.263329
v 0.259771 3.197846 -0.343947
v 0.179152 3.197846 -0.410109
v 0.087175 3.197846 -0.459271
v -0.012625 3.197846 -0.489545
v -0.267091 3.069378 -0.725273
v -0.116413 3.069378 -0.740114
v -0.411979 3.069378 -0.681322
v -0.545509 3.069378 -0.609949
v -0.662548 3.069378 -0.513897
v -0.758600 3.069378 -0.396858
v -0.829973 3.069378 -0.263328
v -0.873924 3.069378 -0.118441
v -0.888765 3.069378 0.032238
v -0.873924 3.069378 0.182916
v -0.829973 3.069378 0.327804
v -0.758600 3.069378 0.461333
v -0.662548 3.069378 0.578373
v -0.545508 3.069378 0.674425
v -0.411979 3.069378 0.745798
v -0.267091 3.069378 0.789749
v -0.116412 3.069378 0.804589
v 0.034266 3.069378 0.789748
v 0.179154 3.069378 0.745797
v 0.312683 3.069378 0.674424
v 0.429723 3.069378 0.578372
v 0.525774 3.069378 0.461332
v 0.597147 3.069378 0.327803
v 0.641098 3.069378 0.182915
v 0.655938 3.069378 0.032236
v 0.641098 3.069378 -0.118442
v 0.597146 3.069378 -0.263330
v 0.525773 3.069378 -0.396859
v 0.429721 3.069378 -0.513898
v 0.312681 3.069378 -0.609950
v 0.179152 3.069378 -0.681323
v 0.034264 3.069378 -0.725274
v -0.308190 2.896490 -0.931891
v -0.116413 2.896490 -0.950779
v -0.492597 2.896490 -0.875952
v -0.662548 2.896490 -0.785111
v -0.811511 2.896489 -0.662860
v -0.933762 2.896489 -0.513897
v -1.024602 2.896489 -0.343947
v -1.080542 2.896489 -0.159539
v -1.099430 2.896489 0.032238
v -1.080542 2.896489 0.224015
v -1.024602 2.896489 0.408422
v -0.933762 2.896489 0.578373
v -0.811511 2.896489 0.727336
v -0.662548 2.896489 0.849587
v -0.492597 2.896489 0.940427
v -0.308189 2.896489 0.996366
v -0.116412 2.896489 1.015254
v 0.075365 2.896489 0.996366
v 0.259772 2.896489 0.940426
v 0.429723 2.896489 0.849586
v 0.578686 2.896489 0.727335
v 0.700936 2.896489 0.578372
v 0.791777 2.896489 0.408421
v 0.847716 2.896489 0.224013
v 0.866604 2.896489 0.032236
v 0.847715 2.896489 -0.159541
v 0.791776 2.896489 -0.343948
v 0.700935 2.896489 -0.513899
v 0.578684 2.896489 -0.662862
v 0.429720 2.896490 -0.785112
v 0.259769 2.896490 -0.875952
v 0.075362 2.896490 -0.931891
v -0.341919 2.685824 -1.101458
v -0.116413 2.685824 -1.123668
v -0.558759 2.685824 -1.035680
v -0.758600 2.685824 -0.928863
v -0.933762 2.685824 -0.785111
v -1.077513 2.685824 -0.609949
v -1.184331 2.685824 -0.410108
v -1.250108 2.685824 -0.193268
v -1.272319 2.685824 0.032238
v -1.250108 2.685824 0.257744
v -1.184331 2.685824 0.474584
v -1.077513 2.685824 0.674425
v -0.933761 2.685824 0.849587
v -0.758599 2.685824 0.993338
v -0.558758 2.685824 1.100155
v -0.341918 2.685824 1.165933
v -0.116412 2.685824 1.188143
v 0.109094 2.685824 1.165933
v 0.325934 2.685824 1.100155
v 0.525775 2.685824 0.993337
v 0.700937 2.685824 0.849585
v 0.844688 2.685824 0.674423
v 0.951505 2.685824 0.474582
v 1.017282 2.685824 0.257742
v 1.039493 2.685824 0.032236
v 1.017282 2.685824 -0.193270
v 0.951504 2.685824 -0.410110
v 0.844686 2.685824 -0.609951
v 0.700934 2.685824 -0.785113
v 0.525772 2.685824 -0.928864
v 0.325931 2.685824 -1.035681
v 0.109091 2.685824 -1.101458
v -0.366982 2.445478 -1.227457
v -0.116413 2.445478 -1.252136
v -0.607921 2.445478 -1.154369
v -0.829973 2.445478 -1.035680
v -1.024602 2.445478 -0.875952
v -1.184331 2.445477 -0.681322
v -1.303020 2.445477 -0.459271
v -1.376108 2.445477 -0.218331
v -1.400787 2.445477 0.032238
v -1.376108 2.445477 0.282807
v -1.303019 2.445477 0.523746
v -1.184330 2.445477 0.745798
v -1.024602 2.445477 0.940427
v -0.829972 2.445477 1.100155
v -0.607921 2.445477 1.218844
v -0.366981 2.445477 1.291932
v -0.116412 2.445477 1.316611
v 0.134157 2.445477 1.291932
v 0.375096 2.445477 1.218843
v 0.597148 2.445477 1.100154
v 0.791777 2.445477 0.940426
v 0.951505 2.445477 0.745796
v 1.070194 2.445477 0.523744
v 1.143282 2.445477 0.282805
v 1.167960 2.445477 0.032236
v 1.143281 2.445477 -0.218333
v 1.070193 2.445477 -0.459273
v 0.951503 2.445477 -0.681324
v 0.791774 2.445478 -0.875953
v 0.597145 2.445478 -1.035681
v 0.375093 2.445478 -1.154370
v 0.134153 2.445478 -1.227458
vt 0.850192 0.154715
vt 0.850302 0.131454
vt 0.854798 0.131912
vt 0.859128 0.133239
vt 0.863133 0.135386
vt 0.866655 0.138278
vt 0.869551 0.141809
vt 0.871702 0.145849
vt 0.873021 0.150243
vt 0.873453 0.154819
vt 0.872981 0.159392
vt 0.871630 0.163776
vt 0.869508 0.167744
vt 0.866639 0.171179
vt 0.863094 0.174047
vt 0.858991 0.176205
vt 0.854587 0.177546
vt 0.850084 0.177975
vt 0.845587 0.177517
vt 0.841257 0.176191
vt 0.837252 0.174043
vt 0.833730 0.171152
vt 0.830834 0.167620
vt 0.828683 0.163580
vt 0.827364 0.159186
vt 0.826932 0.154611
vt 0.827404 0.150038
vt 0.828754 0.145654
vt 0.830876 0.141686
vt 0.833746 0.138252
vt 0.837292 0.135382
vt 0.841394 0.133225
vt 0.845798 0.131884
vt 0.859633 0.108795
vt 0.850380 0.107848
vt 0.868503 0.111569
vt 0.876649 0.116011
vt 0.883724 0.121924
vt 0.889474 0.129059
vt 0.893704 0.137133
vt 0.896274 0.145850
vt 0.897117 0.154888
vt 0.896201 0.163920
vt 0.893543 0.172645
vt 0.889194 0.180810
vt 0.883268 0.187969
vt 0.876128 0.193770
vt 0.868062 0.198032
vt 0.859268 0.200694
vt 0.850005 0.201582
vt 0.840752 0.200635
vt 0.831882 0.197860
vt 0.823736 0.193419
vt 0.816661 0.187506
vt 0.810911 0.180370
vt 0.806682 0.172297
vt 0.804111 0.163580
vt 0.803268 0.154542
vt 0.804185 0.145509
vt 0.806842 0.136783
vt 0.811192 0.128618
vt 0.817119 0.121459
vt 0.824257 0.115659
vt 0.832323 0.111398
vt 0.841117 0.108735
vt 0.864604 0.085782
vt 0.850797 0.084323
vt 0.877818 0.089942
vt 0.889952 0.096566
vt 0.900557 0.105422
vt 0.909221 0.116161
vt 0.915614 0.128362
vt 0.919493 0.141538
vt 0.920689 0.155264
vt 0.919225 0.169021
vt 0.915092 0.182210
vt 0.908466 0.194340
vt 0.899608 0.204946
vt 0.888859 0.213616
vt 0.876627 0.220011
vt 0.863380 0.223892
vt 0.849588 0.225107
vt 0.835781 0.223648
vt 0.822567 0.219488
vt 0.810433 0.212863
vt 0.799828 0.204008
vt 0.791164 0.193268
vt 0.784771 0.181067
vt 0.780893 0.167891
vt 0.779696 0.154166
vt 0.781160 0.140408
vt 0.785294 0.127219
vt 0.791919 0.115089
vt 0.800777 0.104483
vt 0.811526 0.095813
vt 0.823759 0.089418
vt 0.837005 0.085538
vt 0.869453 0.062731
vt 0.851120 0.060758
vt 0.887065 0.068264
vt 0.903254 0.077113
vt 0.917403 0.088944
vt 0.928969 0.103304
vt 0.937508 0.119649
vt 0.942689 0.137362
vt 0.944250 0.155712
vt 0.942260 0.173993
vt 0.936727 0.191559
vt 0.927874 0.207718
vt 0.916040 0.221845
vt 0.901676 0.233392
vt 0.885329 0.241912
vt 0.867626 0.247077
vt 0.849265 0.248671
vt 0.830932 0.246698
vt 0.813320 0.241166
vt 0.797131 0.232316
vt 0.782982 0.220485
vt 0.771416 0.206125
vt 0.762877 0.189781
vt 0.757696 0.172067
vt 0.756135 0.153717
vt 0.758125 0.135436
vt 0.763658 0.117870
vt 0.772511 0.101711
vt 0.784345 0.087585
vt 0.798709 0.076037
vt 0.815056 0.067517
vt 0.832760 0.062352
vt 0.874354 0.039512
vt 0.851400 0.037012
vt 0.896385 0.046438
vt 0.916646 0.057523
vt 0.934358 0.072344
vt 0.948836 0.090337
vt 0.959519 0.110811
vt 0.965991 0.132977
vt 0.967997 0.155971
vt 0.965484 0.178906
vt 0.958544 0.200911
vt 0.947448 0.221145
vt 0.932618 0.238829
vt 0.914622 0.253282
vt 0.894147 0.263944
vt 0.871983 0.270405
vt 0.848985 0.272417
vt 0.826031 0.269917
vt 0.804000 0.262991
vt 0.783739 0.251906
vt 0.766027 0.237085
vt 0.751550 0.219092
vt 0.740866 0.198618
vt 0.734394 0.176452
vt 0.732388 0.153458
vt 0.734902 0.130523
vt 0.741841 0.108518
vt 0.752937 0.088285
vt 0.767767 0.070600
vt 0.785764 0.056147
vt 0.806238 0.045485
vt 0.828402 0.039024
vt 0.879329 0.015823
vt 0.851665 0.012806
vt 0.905879 0.024172
vt 0.930296 0.037535
vt 0.951643 0.055404
vt 0.969095 0.077098
vt 0.981972 0.101784
vt 0.989775 0.128509
vt 0.992201 0.156235
vt 0.989170 0.183893
vt 0.980802 0.210425
vt 0.967423 0.234816
vt 0.949543 0.256134
vt 0.927845 0.273555
vt 0.903160 0.286408
vt 0.876442 0.294196
vt 0.848720 0.296624
vt 0.821056 0.293606
vt 0.794506 0.285257
vt 0.770089 0.271894
vt 0.748742 0.254026
vt 0.731290 0.232332
vt 0.718413 0.207645
vt 0.710610 0.180920
vt 0.708184 0.153194
vt 0.711216 0.125536
vt 0.719583 0.099004
vt 0.732962 0.074613
vt 0.750842 0.053296
vt 0.772541 0.035874
vt 0.797225 0.023021
vt 0.823943 0.015233
vn 0.0000 1.0000 -0.0000
vn -0.0000 0.9796 -0.2010
vn -0.0392 0.9796 -0.1971
vn -0.0769 0.9796 -0.1857
vn -0.1117 0.9796 -0.1671
vn -0.1421 0.9796 -0.1421
vn -0.1671 0.9796 -0.1117
vn -0.1857 0.9796 -0.0769
vn -0.1971 0.9796 -0.0392
vn -0.2010 0.9796 0.0000
vn -0.1971 0.9796 0.0392
vn -0.1857 0.9796 0.0769
vn -0.1671 0.9796 0.1117
vn -0.1421 0.9796 0.1421
vn -0.1117 0.9796 0.1671
vn -0.0769 0.9796 0.1857
vn -0.0392 0.9796 0.1971
vn 0.0000 0.9796 0.2010
vn 0.0392 0.9796 0.1971
vn 0.0769 0.9796 0.1857
vn 0.1117 0.9796 0.1671
vn 0.1421 0.9796 0.1421
vn 0.1671 0.9796 0.1116
vn 0.1857 0.9796 0.0769
vn 0.1971 0.9796 0.0392
vn 0.2010 0.9796 -0.0000
vn 0.1971 0.9796 -0.0392
vn 0.1857 0.9796 -0.0769
vn 0.1671 0.9796 -0.1117
vn 0.1421 0.9796 -0.1421
vn 0.1117 0.9796 -0.1671
vn 0.0769 0.9796 -0.1857
vn 0.0392 0.9796 -0.1971
vn -0.0757 0.9217 -0.3804
vn -0.0000 0.9217 -0.3879
vn -0.1484 0.9217 -0.3584
vn -0.2155 0.9217 -0.3225
vn -0.2743 0.9217 -0.2743
vn -0.3225 0.9217 -0.2155
vn -0.3584 0.9217 -0.1484
vn -0.3804 0.9217 -0.0757
vn -0.3879 0.9217 0.0000
vn -0.3804 0.9217 0.0757
vn -0.3584 0.9217 0.1484
vn -0.3225 0.9217 0.2155
vn -0.2743 0.9217 0.2743
vn -0.2155 0.9217 0.3225
vn -0.1484 0.9217 0.3584
vn -0.0757 0.9217 0.3804
vn 0.0000 0.9217 0.3879
vn 0.0757 0.9217 0.3804
vn 0.1484 0.9217 0.3584
vn 0.2155 0.9217 0.3225
vn 0.2743 0.9217 0.2743
vn 0.3225 0.9217 0.2155
vn 0.3584 0.9217 0.1484
vn 0.3804 0.9217 0.0757
vn 0.3879 0.9217 -0.0000
vn 0.3804 0.9217 -0.0757
vn 0.3584 0.9217 -0.1484
vn 0.3225 0.9217 -0.2155
vn 0.2743 0.9217 -0.2743
vn 0.2155 0.9217 -0.3225
vn 0.1484 0.9217 -0.3584
vn 0.0757 0.9217 -0.3804
vn -0.1092 0.8286 -0.5490
vn -0.0000 0.8286 -0.5598
vn -0.2142 0.8286 -0.5172
vn -0.3110 0.8286 -0.4654
vn -0.3958 0.8286 -0.3958
vn -0.4654 0.8286 -0.3110
vn -0.5172 0.8286 -0.2142
vn -0.5490 0.8286 -0.1092
vn -0.5598 0.8286 -0.0000
vn -0.5490 0.8286 0.1092
vn -0.5172 0.8286 0.2142
vn -0.4654 0.8286 0.3110
vn -0.3958 0.8286 0.3958
vn -0.3110 0.8286 0.4654
vn -0.2142 0.8286 0.5172
vn -0.1092 0.8286 0.5490
vn 0.0000 0.8286 0.5598
vn 0.1092 0.8286 0.5490
vn 0.2142 0.8286 0.5172
vn 0.3110 0.8286 0.4654
vn 0.3958 0.8286 0.3958
vn 0.4654 0.8286 0.3110
vn 0.5172 0.8286 0.2142
vn 0.5490 0.8286 0.1092
vn 0.5598 0.8286 -0.0000
vn 0.5490 0.8286 -0.1092
vn 0.5172 0.8286 -0.2142
vn 0.4654 0.8286 -0.3110
vn 0.3958 0.8286 -0.3958
vn 0.3110 0.8286 -0.4654
vn 0.2142 0.8286 -0.5172
vn 0.1092 0.8286 -0.5490
vn -0.1385 0.7041 -0.6965
vn -0.0000 0.7041 -0.7101
vn -0.2718 0.7041 -0.6561
vn -0.3945 0.7041 -0.5905
vn -0.5021 0.7041 -0.5021
vn -0.5905 0.7041 -0.3945
vn -0.6561 0.7041 -0.2718
vn -0.6965 0.7041 -0.1385
vn -0.7101 0.7041 -0.0000
vn -0.6965 0.7041 0.1385
vn -0.6561 0.7041 0.2718
vn -0.5905 0.7041 0.3945
vn -0.5021 0.7041 0.5021
vn -0.3945 0.7041 0.5905
vn -0.2718 0.7041 0.6561
vn -0.1385 0.7041 0.6965
vn 0.0000 0.7041 0.7101
vn 0.1385 0.7041 0.6965
vn 0.2718 0.7041 0.6561
vn 0.3945 0.7041 0.5905
vn 0.5021 0.7041 0.5021
vn 0.5905 0.7041 0.3945
vn 0.6561 0.7041 0.2718
vn 0.6965 0.7041 0.1385
vn 0.7101 0.7041 -0.0000
vn 0.6965 0.7041 -0.1385
vn 0.6561 0.7041 -0.2718
vn 0.5905 0.7041 -0.3945
vn 0.5021 0.7041 -0.5021
vn 0.3945 0.7041 -0.5905
vn 0.2718 0.7041 -0.6561
vn 0.1385 0.7041 -0.6965
vn -0.1626 0.5528 -0.8173
vn -0.0000 0.5528 -0.8333
vn -0.3189 0.5528 -0.7699
vn -0.4630 0.5528 -0.6929
vn -0.5893 0.5528 -0.5893
vn -0.6929 0.5528 -0.4630
vn -0.7699 0.5528 -0.3189
vn -0.8173 0.5528 -0.1626
vn -0.8333 0.5528 0.0000
vn -0.8173 0.5528 0.1626
vn -0.7699 0.5528 0.3189
vn -0.6929 0.5528 0.4630
vn -0.5893 0.5528 0.5893
vn -0.4630 0.5528 0.6929
vn -0.3189 0.5528 0.7699
vn -0.1626 0.5528 0.8173
vn 0.0000 0.5528 0.8333
vn 0.1626 0.5528 0.8173
vn 0.3189 0.5528 0.7699
vn 0.4630 0.5528 0.6929
vn 0.5893 0.5528 0.5893
vn 0.6929 0.5528 0.4630
vn 0.7699 0.5528 0.3189
vn 0.8173 0.5528 0.1626
vn 0.8333 0.5528 -0.0000
vn 0.8173 0.5528 -0.1626
vn 0.7699 0.5528 -0.3189
vn 0.6929 0.5528 -0.4630
vn 0.5893 0.5528 -0.5893
vn 0.4630 0.5528 -0.6929
vn 0.3189 0.5528 -0.7699
vn 0.1626 0.5528 -0.8173
vn -0.1721 0.4714 -0.8650
vn -0.0000 0.4714 -0.8819
vn -0.3375 0.4714 -0.8148
vn -0.4900 0.4714 -0.7333
vn -0.6236 0.4714 -0.6236
vn -0.7333 0.4714 -0.4900
vn -0.8148 0.4714 -0.3375
vn -0.8650 0.4714 -0.1721
vn -0.8819 0.4714 0.0000
vn -0.8650 0.4714 0.1721
vn -0.8148 0.4714 0.3375
vn -0.7333 0.4714 0.4900
vn -0.6236 0.4714 0.6236
vn -0.4900 0.4714 0.7333
vn -0.3375 0.4714 0.8148
vn -0.1721 0.4714 0.8650
vn 0.0000 0.4714 0.8819
vn 0.1721 0.4714 0.8650
vn 0.3375 0.4714 0.8148
vn 0.4900 0.4714 0.7333
vn 0.6236 0.4714 0.6236
vn 0.7333 0.4714 0.4900
vn 0.8148 0.4714 0.3375
vn 0.8650 0.4714 0.1721
vn 0.8819 0.4714 -0.0000
vn 0.8650 0.4714 -0.1721
vn 0.8148 0.4714 -0.3375
vn 0.7333 0.4714 -0.4900
vn 0.6236 0.4714 -0.6236
vn 0.4900 0.4714 -0.7333
vn 0.3375 0.4714 -0.8148
vn 0.1721 0.4714 -0.8650
usemtl UFO_texture
s 1
f 1/1/1 2/2/2 3/3/3
f 1/1/1 3/3/3 4/4/4
f 1/1/1 4/4/4 5/5/5
f 1/1/1 5/5/5 6/6/6
f 1/1/1 6/6/6 7/7/7
f 1/1/1 7/7/7 8/8/8
f 1/1/1 8/8/8 9/9/9
f 1/1/1 9/9/9 10/10/10
f 1/1/1 10/10/10 11/11/11
f 1/1/1 11/11/11 12/12/12
f 1/1/1 12/12/12 13/13/13
f 1/1/1 13/13/13 14/14/14
f 1/1/1 14/14/14 15/15/15
f 1/1/1 15/15/15 16/16/16
f 1/1/1 16/16/16 17/17/17
f 1/1/1 17/17/17 18/18/18
f 1/1/1 18/18/18 19/19/19
f 1/1/1 19/19/19 20/20/20
f 1/1/1 20/20/20 21/21/21
f 1/1/1 21/21/21 22/22/22
f 1/1/1 22/22/22 23/23/23
f 1/1/1 23/23/23 24/24/24
f 1/1/1 24/24/24 25/25/25
f 1/1/1 25/25/25 26/26/26
f 1/1/1 26/26/26 27/27/27
f 1/1/1 27/27/27 28/28/28
f 1/1/1 28/28/28 29/29/29
f 1/1/1 29/29/29 30/30/30
f 1/1/1 30/30/30 31/31/31
f 1/1/1 31/31/31 32/32/32
f 1/1/1 32/32/32 33/33/33
f 1/1/1 33/33/33 2/2/2
f 34/34/34 3/3/3 2/2/2 35/35/35
f 36/36/36 4/4/4 3/3/3 34/34/34
f 37/37/37 5/5/5 4/4/4 36/36/36
f 38/38/38 6/6/6 5/5/5 37/37/37
f 39/39/39 7/7/7 6/6/6 38/38/38
f 40/40/40 8/8/8 7/7/7 39/39/39
f 41/41/41 9/9/9 8/8/8 40/40/40
f 42/42/42 10/10/10 9/9/9 41/41/41
f 43/43/43 11/11/11 10/10/10 42/42/42
f 44/44/44 12/12/12 11/11/11 43/43/43
f 45/45/45 13/13/13 12/12/12 44/44/44
f 46/46/46 14/14/14 13/13/13 45/45/45
f 47/47/47 15/15/15 14/14/14 46/46/46
f 48/48/48 16/16/16 15/15/15 47/47/47
f 49/49/49 17/17/17 16/16/16 48/48/48
f 50/50/50 18/18/18 17/17/17 49/49/49
f 51/51/51 19/19/19 18/18/18 50/50/50
f 52/52/52 20/20/20 19/19/19 51/51/51
f 53/53/53 21/21/21 20/20/20 52/52/52
f 54/54/54 22/22/22 21/21/21 53/53/53
f 55/55/55 23/23/23 22/22/22 54/54/54
f 56/56/56 24/24/24 23/23/23 55/55/55
f 57/57/57 25/25/25 24/24/24 56/56/56
f 58/58/58 26/26/26 25/25/25 57/57/57
f 59/59/59 27/27/27 26/26/26 58/58/58
f 60/60/60 28/28/28 27/27/27 59/59/59
f 61/61/61 29/29/29 28/28/28 60/60/60
f 62/62/62 30/30/30 29/29/29 61/61/61
f 63/63/63 31/31/31 30/30/30 62/62/62
f 64/64/64 32/32/32 31/31/31 63/63/63
f 65/65/65 33/33/33 32/32/32 64/64/64
f 35/35/35 2/2/2 33/33/33 65/65/65
f 66/66/66 34/34/34 35/35/35 67/67/67
f 68/68/68 36/36/36 34/34/34 66/66/66
f 69/69/69 37/37/37 36/36/36 68/68/68
f 70/70/70 38/38/38 37/37/37 69/69/69
f 71/71/71 39/39/39 38/38/38 70/70/70
f 72/72/72 40/40/40 39/39/39 71/71/71
f 73/73/73 41/41/41 40/40/40 72/72/72
f 74/74/74 42/42/42 41/41/41 73/73/73
f 75/75/75 43/43/43 42/42/42 74/74/74
f 76/76/76 44/44/44 43/43/43 75/75/75
f 77/77/77 45/45/45 44/44/44 76/76/76
f 78/78/78 46/46/46 45/45/45 77/77/77
f 79/79/79 47/47/47 46/46/46 78/78/78
f 80/80/80 48/48/48 47/47/47 79/79/79
f 81/81/81 49/49/49 48/48/48 80/80/80
f 82/82/82 50/50/50 49/49/49 81/81/81
f 83/83/83 51/51/51 50/50/50 82/82/82
f 84/84/84 52/52/52 51/51/51 83/83/83
f 85/85/85 53/53/53 52/52/52 84/84/84
f 86/86/86 54/54/54 53/53/53 85/85/85
f 87/87/87 55/55/55 54/54/54 86/86/86
f 88/88/88 56/56/56 55/55/55 87/87/87
f 89/89/89 57/57/57 56/56/56 88/88/88
f 90/90/90 58/58/58 57/57/57 89/89/89
f 91/91/91 59/59/59 58/58/58 90/90/90
f 92/92/92 60/60/60 59/59/59 91/91/91
f 93/93/93 61/61/61 60/60/60 92/92/92
f 94/94/94 62/62/62 61/61/61 93/93/93
f 95/95/95 63/63/63 62/62/62 94/94/94
f 96/96/96 64/64/64 63/63/63 95/95/95
f 97/97/97 65/65/65 64/64/64 96/96/96
f 67/67/67 35/35/35 65/65/65 97/97/97
f 98/98/98 66/66/66 67/67/67 99/99/99
f 100/100/100 68/68/68 66/66/66 98/98/98
f 101/101/101 69/69/69 68/68/68 100/100/100
f 102/102/102 70/70/70 69/69/69 101/101/101
f 103/103/103 71/71/71 70/70/70 102/102/102
f 104/104/104 72/72/72 71/71/71 103/103/103
f 105/105/105 73/73/73 72/72/72 104/104/104
f 106/106/106 74/74/74 73/73/73 105/105/105
f 107/107/107 75/75/75 74/74/74 106/106/106
f 108/108/108 76/76/76 75/75/75 107/107/107
f 109/109/109 77/77/77 76/76/76 108/108/108
f 110/110/110 78/78/78 77/77/77 109/109/109
f 111/111/111 79/79/79 78/78/78 110/110/110
f 112/112/112 80/80/80 79/79/79 111/111/111
f 113/113/113 81/81/81 80/80/80 112/112/112
f 114/114/114 82/82/82 81/81/81 113/113/113
f 115/115/115 83/83/83 82/82/82 114/114/114
f 116/116/116 84/84/84 83/83/83 115/115/115
f 117/117/117 85/85/85 84/84/84 116/116/116
f 118/118/118 86/86/86 85/85/85 117/117/117
f 119/119/119 87/87/87 86/86/86 118/118/118
f 120/120/120 88/88/88 87/87/87 119/119/119
f 121/121/121 89/89/89 88/88/88 120/120/120
f 122/122/122 90/90/90 89/89/89 121/121/121
f 123/123/123 91/91/91 90/90/90 122/122/122
f 124/124/124 92/92/92 91/91/91 123/123/123
f 125/125/125 93/93/93 92/92/92 124/124/124
f 126/126/126 94/94/94 93/93/93 125/125/125
f 127/127/127 95/95/95 94/94/94 126/126/126
f 128/128/128 96/96/96 95/95/95 127/127/127
f 129/129/129 97/97/97 96/96/96 128/128/128
f 99/99/99 67/67/67 97/97/97 129/129/129
f 130/130/130 98/98/98 99/99/99 131/131/131
f 132/132/132 100/100/100 98/98/98 130/130/130
f 133/133/133 101/101/101 100/100/100 132/132/132
f 134/134/134 102/102/102 101/101/101 133/133/133
f 135/135/135 103/103/103 102/102/102 134/134/134
f 136/136/136 104/104/104 103/103/103 135/135/135
f 137/137/137 105/105/105 104/104/104 136/136/136
f 138/138/138 106/106/106 105/105/105 137/137/137
f 139/139/139 107/107/107 106/106/106 138/138/138
f 140/140/140 108/108/108 107/107/107 139/139/139
f 141/141/141 109/109/109 108/108/108 140/140/140
f 142/142/142 110/110/110 109/109/109 141/141/141
f 143/143/143 111/111/111 110/110/110 142/142/142
f 144/144/144 112/112/112 111/111/111 143/143/143
f 145/145/145 113/113/113 112/112/112 144/144/144
f 146/146/146 114/114/114 113/113/113 145/145/145
f 147/147/147 115/115/115 114/114/114 146/146/146
f 148/148/148 116/116/116 115/115/115 147/147/147
f 149/149/149 117/117/117 116/116/116 148/148/148
f 150/150/150 118/118/118 117/117/117 149/149/149
f 151/151/151 119/119/119 118/118/118 150/150/150
f 152/152/152 120/120/120 119/119/119 151/151/151
f 153/153/153 121/121/121 120/120/120 152/152/152
f 154/154/154 122/122/122 121/121/121 153/153/153
f 155/155/155 123/123/123 122/122/122 154/154/154
f 156/156/156 124/124/124 123/123/123 155/155/155
f 157/157/157 125/125/125 124/124/124 156/156/156
f 158/158/158 126/126/126 125/125/125 157/157/157
f 159/159/159 127/127/127 126/126/126 158/158/158
f 160/160/160 128/128/128 127/127/127 159/159/159
f 161/161/161 129/129/129 128/128/128 160/160/160
f 131/131/131 99/99/99 129/129/129 161/161/161
f 162/162/162 130/130/130 131/131/131 163/163/163
f 164/164/164 132/132/132 130/130/130 162/162/162
f 165/165/165 133/133/133 132/132/132 164/164/164
f 166/166/166 134/134/134 133/133/133 165/165/165
f 167/167/167 135/135/135 134/134/134 166/166/166
f 168/168/168 136/136/136 135/135/135 167/167/167
f 169/169/169 137/137/137 136/136/136 168/168/168
f 170/170/170 138/138/138 137/137/137 169/169/169
f 171/171/171 139/139/139 138/138/138 170/170/170
f 172/172/172 140/140/140 139/139/139 171/171/171
f 173/173/173 141/141/141 140/140/140 172/172/172
f 174/174/174 142/142/142 141/141/141 173/173/173
f 175/175/175 143/143/143 142/142/142 174/174/174
f 176/176/176 144/144/144 143/143/143 175/175/175
f 177/177/177 145/145/145 144/144/144 176/176/176
f 178/178/178 146/146/146 145/145/145 177/177/177
f 179/179/179 147/147/147 146/146/146 178/178/178
f 180/180/180 148/148/148 147/147/147 179/179/179
f 181/181/181 149/149/149 148/148/148 180/180/180
f 182/182/182 150/150/150 149/149/149 181/181/181
f 183/183/183 151/151/151 150/150/150 182/182/182
f 184/184/184 152/152/152 151/151/151 183/183/183
f 185/185/185 153/153/153 152/152/152 184/184/184
f 186/186/186 154/154/154 153/153/153 185/185/185
f 187/187/187 155/155/155 154/154/154 186/186/186
f 188/188/188 156/156/156 155/155/155 187/187/187
f 189/189/189 157/157/157 156/156/156 188/188/188
f 190/190/190 158/158/158 157/157/157 189/189/189
f 191/191/191 159/159/159 158/158/158 190/190/190
f 192/192/192 160/160/160 159/159/159 191/191/191
f 193/193/193 161/161/161 160/160/160 192/192/192
f 163/163/163 131/131/131 161/161/161 193/193/193
